<svg xmlns="http://www.w3.org/2000/svg" xmlns:xlink="http://www.w3.org/1999/xlink" viewBox="0,0,256,256" width="100px" height="100px"><g fill="#ffffff" fill-rule="nonzero" stroke="none" stroke-width="1" stroke-linecap="butt" stroke-linejoin="miter" stroke-miterlimit="10" stroke-dasharray="" stroke-dashoffset="0" style="mix-blend-mode: normal"><g transform="scale(2.56,2.56)"><path d="M39.0625,2.99414c-0.12848,-0.00146 -0.26271,0.0113 -0.4043,0.04102c-0.63763,0.13434 -0.97801,0.54522 -1.25586,0.95703c-0.27785,0.41181 -0.49522,0.89604 -0.6875,1.45117c-0.38455,1.11026 -0.65201,2.50619 -0.73047,3.99023c-0.14726,2.78536 0.38414,5.95308 2.5918,7.71094l0.16602,0.84375c-3.72516,1.43043 -6.25898,4.18891 -8.0293,7.52539c-0.41308,0.77853 -0.7873,1.59029 -1.13867,2.41992l-8.96875,-1.92187c-0.03266,-0.00789 -0.06603,-0.01247 -0.09961,-0.01367c-0.25958,-0.00695 -0.48129,0.18595 -0.5103,0.444c-0.02901,0.25805 0.14432,0.49536 0.39897,0.54623l8.79688,1.88477c-0.30571,0.77641 -0.59491,1.5637 -0.86719,2.36523l-9.8125,-0.23828c-0.01627,-0.0008 -0.03256,-0.0008 -0.04883,0c-0.27612,0.00704 -0.49426,0.23657 -0.48725,0.51269c0.00701,0.27612 0.23652,0.49429 0.51264,0.48731l9.51758,0.23047c-0.27179,0.83736 -0.53927,1.67621 -0.79492,2.52148l-8.78125,1.25391c-0.18534,0.01491 -0.34711,0.13144 -0.41996,0.30251c-0.07286,0.17107 -0.04477,0.36845 0.07291,0.51241c0.11768,0.14396 0.30553,0.21074 0.48767,0.17336l8.32227,-1.18945c-0.14415,0.48086 -0.28909,0.96337 -0.43359,1.44141c-3.98451,4.12774 -9.45898,13.65252 -9.45898,30.43555c0,2.36031 0.8336,4.01105 2.04688,4.96484c1.01628,0.79892 2.17054,1.07367 3.22461,1.23047c3.30803,11.35019 10.10547,16.90625 10.10547,16.90625c0.17718,0.14065 0.39682,0.21708 0.62305,0.2168h17h17c0.22622,0.00028 0.44586,-0.07614 0.62305,-0.2168c0,0 6.79744,-5.55606 10.10547,-16.90625c1.05407,-0.1568 2.20833,-0.43155 3.22461,-1.23047c1.21328,-0.95379 2.04688,-2.60454 2.04688,-4.96484c0,-16.78303 -5.47448,-26.30781 -9.45898,-30.43555c-0.1445,-0.47804 -0.28944,-0.96054 -0.43359,-1.44141l8.32227,1.18945c0.18215,0.03738 0.36999,-0.0294 0.48767,-0.17336c0.11768,-0.14396 0.14577,-0.34134 0.07291,-0.51241c-0.07286,-0.17107 -0.23462,-0.2876 -0.41996,-0.30251l-8.78125,-1.25391c-0.25565,-0.84527 -0.52313,-1.68412 -0.79492,-2.52148l9.51758,-0.23047c0.27608,-0.00656 0.4946,-0.23563 0.48813,-0.51172c-0.00647,-0.27608 -0.23548,-0.49467 -0.51156,-0.48828l-9.8125,0.23828c-0.27228,-0.80154 -0.56147,-1.58882 -0.86719,-2.36523l8.79688,-1.88477c0.24864,-0.04902 0.42129,-0.27628 0.40185,-0.52896c-0.01944,-0.25267 -0.22482,-0.45086 -0.47803,-0.46128c-0.04533,-0.00158 -0.09067,0.00302 -0.13477,0.01367l-8.96875,1.92188c-0.35137,-0.82964 -0.72559,-1.64139 -1.13867,-2.41992c-1.77031,-3.33648 -4.30414,-6.09496 -8.0293,-7.52539l0.16602,-0.84375c2.20769,-1.75791 2.73906,-4.92546 2.5918,-7.71094c-0.07846,-1.48411 -0.34591,-2.88 -0.73047,-3.99023c-0.19228,-0.55512 -0.4096,-1.03938 -0.6875,-1.45117c-0.2779,-0.41179 -0.61798,-0.82302 -1.25586,-0.95703c-0.56644,-0.1192 -1.01553,0.04125 -1.44531,0.24414c-0.42978,0.20289 -0.85052,0.48951 -1.2832,0.84766c-0.86537,0.71629 -1.76628,1.72312 -2.55078,2.93164c-1.49389,2.30133 -2.53654,5.40132 -1.61719,8.44531l-0.26562,0.69141c-1.51779,-0.13707 -2.9897,-0.19531 -4.17969,-0.19531c-1.18998,0 -2.6619,0.05824 -4.17969,0.19531l-0.26562,-0.69141c0.91935,-3.04396 -0.1233,-6.14411 -1.61719,-8.44531c-0.7845,-1.20846 -1.68545,-2.21533 -2.55078,-2.93164c-0.43267,-0.35816 -0.8535,-0.64471 -1.2832,-0.84766c-0.32228,-0.15221 -0.65559,-0.28077 -1.04102,-0.28516zM39.11914,5.04492c0.04057,0.01128 0.06715,0.0138 0.12891,0.04297c0.21503,0.10156 0.52537,0.30036 0.86328,0.58008c0.67583,0.55944 1.47132,1.43547 2.14844,2.47852c1.35424,2.08609 2.20243,4.76582 1.32813,7.12109c-0.08483,0.22829 -0.08344,0.47969 0.00391,0.70703l0.61914,1.60938c0.16515,0.42852 0.60091,0.6895 1.05664,0.63281c1.7189,-0.21294 3.31783,-0.2168 4.73242,-0.2168c1.41459,0 3.01352,0.0039 4.73242,0.2168c0.45573,0.05668 0.89149,-0.20429 1.05664,-0.63281l0.61914,-1.60938c0.08735,-0.22734 0.08873,-0.47874 0.00391,-0.70703c-0.8743,-2.35526 -0.02612,-5.03489 1.32813,-7.12109c0.67712,-1.0431 1.47265,-1.91915 2.14844,-2.47852c0.33789,-0.27968 0.64637,-0.4786 0.86133,-0.58008c0.06258,-0.02954 0.08984,-0.03172 0.13086,-0.04297c0.02229,0.02332 0.02934,0.02307 0.05859,0.06641c0.13157,0.19496 0.30406,0.5447 0.45703,0.98633c0.30594,0.88326 0.55205,2.13551 0.62109,3.44141c0.13808,2.61179 -0.49595,5.30253 -2.06055,6.30078c-0.23004,0.14663 -0.3902,0.38087 -0.44336,0.64844l-0.37305,1.89258c-0.09853,0.50235 0.19818,0.998 0.6875,1.14844c3.64851,1.12354 5.93373,3.60554 7.69336,6.92188c0.32305,0.60884 0.61971,1.25216 0.90625,1.91016l-3.0332,0.65039c-0.18145,0.03071 -0.33137,0.1586 -0.39029,0.33294c-0.05892,0.17434 -0.01731,0.36696 0.10831,0.50145c0.12563,0.13448 0.31497,0.18909 0.49292,0.14217l3.21875,-0.68945c0.25986,0.64648 0.50622,1.31249 0.74414,1.99023l-2.63867,0.06445c-0.27607,0.00657 -0.49456,0.23565 -0.48809,0.51171c0.00647,0.27607 0.23546,0.49465 0.51153,0.48829l2.95313,-0.07227c0.23627,0.7085 0.46653,1.42881 0.69141,2.15625l-3.02734,-0.43164c-0.03292,-0.00527 -0.06629,-0.00723 -0.09961,-0.00586c-0.25615,0.01537 -0.4591,0.22214 -0.46967,0.47854c-0.01058,0.2564 0.17464,0.47918 0.42866,0.5156l3.49414,0.5c0.25118,0.82852 0.50131,1.66051 0.75391,2.49414c0.04764,0.1562 0.1328,0.29836 0.24805,0.41406c3.53249,3.55128 9.07422,12.67619 9.07422,29.2793c0,1.92969 -0.55178,2.81912 -1.28125,3.39258c-0.72947,0.57346 -1.78413,0.81991 -2.82617,0.93164c-0.40879,0.04409 -0.74894,0.33388 -0.85742,0.73047c-2.90467,10.64922 -8.76811,15.72093 -9.42187,16.26367h-16.61328h-16.61328c-0.65376,-0.54274 -6.51721,-5.61446 -9.42187,-16.26367c-0.10848,-0.39659 -0.44863,-0.68638 -0.85742,-0.73047c-1.04204,-0.11173 -2.0967,-0.35818 -2.82617,-0.93164c-0.72947,-0.57346 -1.28125,-1.46288 -1.28125,-3.39258c0,-16.60311 5.5417,-25.72801 9.07422,-29.2793c0.11525,-0.1157 0.20041,-0.25786 0.24805,-0.41406c0.2526,-0.83363 0.50273,-1.66562 0.75391,-2.49414l3.49414,-0.5c0.26066,-0.03303 0.4513,-0.26215 0.43638,-0.52447c-0.01492,-0.26232 -0.2303,-0.46835 -0.49302,-0.47162c-0.02816,0.00023 -0.05626,0.00285 -0.08398,0.00781l-3.02734,0.43164c0.22488,-0.72744 0.45514,-1.44775 0.69141,-2.15625l2.95313,0.07227c0.27607,0.00637 0.50506,-0.21222 0.51153,-0.48829c0.00647,-0.27607 -0.21203,-0.50514 -0.48809,-0.51171l-2.63867,-0.06445c0.23792,-0.67775 0.48428,-1.34375 0.74414,-1.99023l3.21875,0.68945c0.17795,0.04692 0.36729,-0.00769 0.49292,-0.14217c0.12563,-0.13448 0.16723,-0.3271 0.10831,-0.50145c-0.05892,-0.17434 -0.20884,-0.30224 -0.39029,-0.33294l-3.0332,-0.65039c0.28654,-0.658 0.5832,-1.30131 0.90625,-1.91016c1.75962,-3.31634 4.04485,-5.79833 7.69336,-6.92187c0.48932,-0.15044 0.78603,-0.64609 0.6875,-1.14844l-0.37305,-1.89258c-0.05316,-0.26757 -0.21332,-0.50181 -0.44336,-0.64844c-1.56465,-0.99828 -2.19862,-3.68913 -2.06055,-6.30078c0.06904,-1.30583 0.31514,-2.55807 0.62109,-3.44141c0.15297,-0.44167 0.32541,-0.79126 0.45703,-0.98633c0.02905,-0.04305 0.03641,-0.04312 0.05859,-0.06641zM40,22c-1.29167,0 -2.32308,0.50238 -2.99805,1.26172c-0.67497,0.75934 -1.00195,1.75217 -1.00195,2.73828c0,0.98611 0.32698,1.97894 1.00195,2.73828c0.67497,0.75934 1.70638,1.26172 2.99805,1.26172c1.29167,0 2.32308,-0.50238 2.99805,-1.26172c0.67497,-0.75934 1.00195,-1.75217 1.00195,-2.73828c0,-0.98611 -0.32698,-1.97894 -1.00195,-2.73828c-0.67497,-0.75934 -1.70638,-1.26172 -2.99805,-1.26172zM60,22c-1.29167,0 -2.32308,0.50238 -2.99805,1.26172c-0.67497,0.75934 -1.00195,1.75217 -1.00195,2.73828c0,0.98611 0.32698,1.97894 1.00195,2.73828c0.67497,0.75934 1.70638,1.26172 2.99805,1.26172c1.29167,0 2.32308,-0.50238 2.99805,-1.26172c0.67497,-0.75934 1.00195,-1.75217 1.00195,-2.73828c0,-0.98611 -0.32698,-1.97894 -1.00195,-2.73828c-0.67497,-0.75934 -1.70638,-1.26172 -2.99805,-1.26172zM40,23c1.04167,0 1.76026,0.37262 2.25195,0.92578c0.4917,0.55316 0.74805,1.31033 0.74805,2.07422c0,0.76389 -0.25635,1.52106 -0.74805,2.07422c-0.4917,0.55316 -1.21029,0.92578 -2.25195,0.92578c-1.04167,0 -1.76026,-0.37262 -2.25195,-0.92578c-0.4917,-0.55316 -0.74805,-1.31033 -0.74805,-2.07422c0,-0.76389 0.25635,-1.52106 0.74805,-2.07422c0.4917,-0.55316 1.21029,-0.92578 2.25195,-0.92578zM60,23c1.04167,0 1.76026,0.37262 2.25195,0.92578c0.4917,0.55316 0.74805,1.31033 0.74805,2.07422c0,0.76389 -0.25635,1.52106 -0.74805,2.07422c-0.4917,0.55316 -1.21029,0.92578 -2.25195,0.92578c-1.04167,0 -1.76026,-0.37262 -2.25195,-0.92578c-0.4917,-0.55316 -0.74805,-1.31033 -0.74805,-2.07422c0,-0.76389 0.25635,-1.52106 0.74805,-2.07422c0.4917,-0.55316 1.21029,-0.92578 2.25195,-0.92578zM40,24.5c-0.82843,0 -1.5,0.67157 -1.5,1.5c0,0.82843 0.67157,1.5 1.5,1.5c0.82843,0 1.5,-0.67157 1.5,-1.5c0,-0.82843 -0.67157,-1.5 -1.5,-1.5zM60,24.5c-0.82843,0 -1.5,0.67157 -1.5,1.5c0,0.82843 0.67157,1.5 1.5,1.5c0.82843,0 1.5,-0.67157 1.5,-1.5c0,-0.82843 -0.67157,-1.5 -1.5,-1.5zM50,26c-1.657,0 -3,0.5173 -3,1.1543c0,0.637 1.343,1.8457 3,1.8457c1.657,0 3,-1.2087 3,-1.8457c0,-0.637 -1.343,-1.1543 -3,-1.1543zM50,36c-7.86201,0 -14.13649,2.65436 -18.42383,7.12305c-4.28734,4.46869 -6.57617,10.72894 -6.57617,17.87695c0,14.34263 11.18775,26 25,26c13.81226,0 25,-11.65737 25,-26c0,-7.14801 -2.28883,-13.40826 -6.57617,-17.87695c-4.28734,-4.46869 -10.56182,-7.12305 -18.42383,-7.12305zM50,37c7.63799,0 13.61351,2.55389 17.70117,6.81445c4.08766,4.26056 6.29883,10.25056 6.29883,17.18555c0,13.82337 -10.75026,25 -24,25c-13.24974,0 -24,-11.17663 -24,-25c0,-6.93499 2.21117,-12.92498 6.29883,-17.18555c4.08766,-4.26056 10.06318,-6.81445 17.70117,-6.81445zM50,41.11719c-2.079,0 -3.76562,2.54658 -3.76562,3.51758c0,0.971 1.68662,-1.23047 3.76563,-1.23047c2.079,0 3.76563,2.20147 3.76563,1.23047c0,-0.971 -1.68662,-3.51758 -3.76562,-3.51758zM39.51953,43.05273c-0.23653,-0.00609 -0.4808,0.02069 -0.73242,0.08594c-2.013,0.522 -3.69069,3.55455 -3.42969,4.56055c0.261,1.006 1.48309,-1.52878 3.49609,-2.05078c2.013,-0.522 4.05397,0.95717 3.79297,-0.04883c-0.22837,-0.88025 -1.47126,-2.50422 -3.12695,-2.54687zM60.48047,43.05273c-1.65569,0.04266 -2.89858,1.66662 -3.12695,2.54688c-0.261,1.006 1.77997,-0.47317 3.79297,0.04883c2.013,0.522 3.23509,3.05678 3.49609,2.05078c0.261,-1.006 -1.41669,-4.03855 -3.42969,-4.56055c-0.25162,-0.06525 -0.49589,-0.09203 -0.73242,-0.08594zM44.79492,49.01953c-2.048,0.148 -3.52603,2.77542 -3.45703,3.73242c0.069,0.956 1.57114,-1.33247 3.61914,-1.48047c2.047,-0.148 3.86392,1.90036 3.79492,0.94336c-0.069,-0.957 -1.91003,-3.34431 -3.95703,-3.19531zM55.20508,49.01953c-2.047,-0.149 -3.88803,2.23831 -3.95703,3.19531c-0.069,0.957 1.74792,-1.09136 3.79492,-0.94336c2.048,0.148 3.55014,2.43647 3.61914,1.48047c0.069,-0.957 -1.40903,-3.58442 -3.45703,-3.73242zM34.94727,51.18359c-0.25117,0.00593 -0.50192,0.04553 -0.74805,0.12891c-1.969,0.667 -3.20944,3.56828 -2.89844,4.48828c0.311,0.92 1.32983,-1.60253 3.29883,-2.26953c1.969,-0.667 4.46334,1.00594 4.15234,0.08594c-0.27213,-0.805 -2.04648,-2.47509 -3.80469,-2.43359zM65.05273,51.18359c-1.7582,-0.04149 -3.53256,1.62859 -3.80469,2.43359c-0.311,0.92 2.18334,-0.75294 4.15234,-0.08594c1.969,0.667 2.98783,3.18953 3.29883,2.26953c0.311,-0.92 -0.92944,-3.82128 -2.89844,-4.48828c-0.24613,-0.08337 -0.49688,-0.12298 -0.74805,-0.12891z"></path></g></g></svg>